<?xml version="1.0" standalone="no"?><!DOCTYPE svg PUBLIC "-//W3C//DTD SVG 1.1//EN" "http://www.w3.org/Graphics/SVG/1.1/DTD/svg11.dtd"><svg t="1784808689886" class="icon" viewBox="0 0 1024 1024" version="1.1" xmlns="http://www.w3.org/2000/svg" p-id="1231" xmlns:xlink="http://www.w3.org/1999/xlink" width="200" height="200"><path d="M54.016 46.6432m240.9984 0l439.6032 0q240.9984 0 240.9984 240.9984l0 439.6032q0 240.9984-240.9984 240.9984l-439.6032 0q-240.9984 0-240.9984-240.9984l0-439.6032q0-240.9984 240.9984-240.9984Z" fill="#FEF6ED" p-id="1232"></path><path d="M244.3264 359.0656h468.8896v134.4512a234.4448 234.4448 0 0 1-234.4448 234.4448 234.4448 234.4448 0 0 1-234.4448-234.4448V359.0656z" fill="#FFEBD7" p-id="1233"></path><path d="M713.216 432.2304V359.0656H244.3264v154.1632a213.6576 213.6576 0 0 0 33.28 114.7904 378.5216 378.5216 0 0 0 435.6096-195.7888z" fill="#FEF1E2" p-id="1234"></path><path d="M629.76 359.0656H244.3264v154.1632A215.04 215.04 0 0 0 250.88 566.1696a388.096 388.096 0 0 0 40.2944 2.0992A377.9584 377.9584 0 0 0 629.76 359.0656z" fill="#FEF6ED" p-id="1235"></path><path d="M244.3264 486.4a324.352 324.352 0 0 0 224.7168-127.3344H244.3264z" fill="#FEFAF5" p-id="1236"></path><path d="M736.256 405.5552v-46.4896a23.04 23.04 0 0 0-23.04-23.04H244.3264a22.9888 22.9888 0 0 0-23.04 23.04v134.4512a257.4848 257.4848 0 0 0 498.5344 90.4192h15.36a89.1904 89.1904 0 0 0 0.9728-178.3808z m-257.4848 299.3664a211.6096 211.6096 0 0 1-211.4048-211.4048V382.1056h422.8096v111.4112a211.6096 211.6096 0 0 1-211.4048 211.4048z m256.512-167.0656H732.16a258.6624 258.6624 0 0 0 3.8912-44.3392v-41.8816a43.1104 43.1104 0 0 1-0.9728 86.2208zM375.296 309.9136A23.04 23.04 0 0 0 398.336 286.72V217.1904a23.04 23.04 0 0 0-46.08 0V286.72a22.9888 22.9888 0 0 0 23.04 23.1936zM476.16 309.9136a23.04 23.04 0 0 0 23.04-23.04V217.1904a23.04 23.04 0 0 0-46.08 0V286.72a22.9888 22.9888 0 0 0 23.04 23.1936zM574.5152 309.9136a22.9888 22.9888 0 0 0 23.04-23.04V217.1904a23.04 23.04 0 0 0-46.08 0V286.72a22.9888 22.9888 0 0 0 23.04 23.1936z" fill="#333333" p-id="1237"></path><path d="M697.2416 764.9792H258.8672a23.04 23.04 0 0 0 0 46.08h438.3744a23.04 23.04 0 0 0 0-46.08z" fill="#333333" p-id="1238"></path></svg>